<svg width="575" height="160" viewBox="0 0 575 160" fill="none" xmlns="http://www.w3.org/2000/svg">
<path d="M238.686 117.712C252.045 117.712 263.733 111.16 269.995 100.864L255.593 92.544C252.462 98.16 246.096 101.488 238.686 101.488C225.745 101.488 217.396 92.856 217.396 79.856C217.396 66.856 225.745 58.224 238.686 58.224C246.096 58.224 252.358 61.552 255.593 67.168L269.995 58.848C263.629 48.552 251.94 42 238.686 42C216.666 42 200.698 58.432 200.698 79.856C200.698 101.28 216.666 117.712 238.686 117.712Z" fill="#212121"/>
<path d="M282.838 43.456V116.256H299.536V43.456H282.838Z" fill="#212121"/>
<path d="M333.804 100.24V87.344H359.895V71.536H333.804V59.472H362.504V43.456H317.106V116.256H363.026V100.24H333.804Z" fill="#212121"/>
<path d="M406.686 43.456H377.464V116.256H406.686C426.828 116.256 442.169 100.448 442.169 79.856C442.169 59.264 426.828 43.456 406.686 43.456ZM406.686 100.24H394.162V59.472H406.686C418.166 59.472 426.097 67.376 426.097 79.856C426.097 92.336 418.166 100.24 406.686 100.24Z" fill="#212121"/>
<path d="M473.273 100.24V87.344H499.364V71.536H473.273V59.472H501.973V43.456H456.575V116.256H502.495V100.24H473.273Z" fill="#212121"/>
<path d="M557.635 43.456V82.976L529.457 43.456H516.934V116.256H533.632V76.736L561.81 116.256H574.333V43.456H557.635Z" fill="#212121"/>
<ellipse cx="145.506" cy="80" rx="15.0524" ry="15" fill="#FF9102"/>
<path fill-rule="evenodd" clip-rule="evenodd" d="M80.2514 28.9764C108.291 28.8282 80.177 28.9764 80.3258 28.9764C93.639 28.9764 106.209 34.0157 115.803 43.2052C118.629 45.8731 122.274 47.2811 125.918 47.2811C129.711 47.2811 133.579 45.799 136.405 42.8346C141.983 37.0542 141.834 27.9389 136.033 22.3807C121.158 8.15192 101.746 0.222325 81.1439 0.0741084C80.8464 0.0741084 80.6233 0 80.3258 0C36.0722 0 0 35.8685 0 79.8888C0 123.02 34.3616 158.518 78.5407 160C79.0614 160 79.4333 160 80.4001 160C100.928 160 120.414 152.293 135.364 138.36C141.239 132.876 141.537 123.687 136.033 117.906C130.529 112.052 121.307 111.755 115.431 117.239C106.432 125.614 94.829 130.505 82.557 130.95C81.772 130.95 80.2814 130.95 80.2514 130.95C51.9886 130.95 29.0809 107.976 29.0809 79.8147C29.0809 51.95 52.2117 29.1246 80.2514 28.9764Z" fill="#651FFF"/>
</svg>
